<svg id="Group_1176" data-name="Group 1176" xmlns="http://www.w3.org/2000/svg" viewBox="0 0 20 20">
  <defs>
    <style>
      .cls-1 {
        fill: #f0972d;
      }

      .cls-2 {
        fill: #fff;
      }
    </style>
  </defs>
  <circle id="Ellipse_200" data-name="Ellipse 200" class="cls-1" cx="10" cy="10" r="10" transform="translate(0 0)"/>
  <g id="Group_274" data-name="Group 274" transform="translate(4.575 7.206)">
    <path id="Path_172" data-name="Path 172" class="cls-2" d="M11.3,17.8h1.984l.729,2.308-.972,3.036C12.434,21.363,11.867,19.581,11.3,17.8Z" transform="translate(-11.3 -17.8)"/>
    <path id="Path_173" data-name="Path 173" class="cls-2" d="M19.827,17.8h1.781c.243.769.486,1.5.688,2.267-.324.891-.607,1.781-.931,2.713l-.729-2.308c-.445,1.377-.891,2.753-1.377,4.13H17.6c.283-.85.526-1.7.81-2.551C18.9,20.634,19.381,19.217,19.827,17.8Z" transform="translate(-15.049 -17.8)"/>
    <path id="Path_174" data-name="Path 174" class="cls-2" d="M31.127,17.8h1.822l-2.186,6.8H28.9C29.629,22.334,30.357,20.067,31.127,17.8Z" transform="translate(-21.774 -17.8)"/>
  </g>
  <path id="Path_175" data-name="Path 175" class="cls-2" d="M23.041.688A.178.178,0,0,0,23,.364,10.877,10.877,0,0,0,20.166,0a8.912,8.912,0,0,0-2.753.445.178.178,0,0,0-.04.324l2.794,1.579a.123.123,0,0,0,.162,0Z" transform="translate(-10.288 0)"/>
  <path id="Path_176" data-name="Path 176" class="cls-2" d="M2.065,10.777a.184.184,0,0,0-.324-.081A9.607,9.607,0,0,0,.486,13.287,10.625,10.625,0,0,0,0,16.04c0,.162.2.243.283.121l2.389-2.146c.04-.04.081-.121.04-.162Z" transform="translate(0 -6.324)"/>
  <path id="Path_177" data-name="Path 177" class="cls-2" d="M5.615,39.5a.182.182,0,0,0-.162.283,9.856,9.856,0,0,0,2.105,1.984,8.893,8.893,0,0,0,2.47,1.255.169.169,0,0,0,.2-.243L8.895,39.864a.559.559,0,0,0-.162-.121Z" transform="translate(-3.227 -23.508)"/>
  <path id="Path_178" data-name="Path 178" class="cls-2" d="M37.492,38.62a.17.17,0,0,0,.283.162,11.857,11.857,0,0,0,2.146-1.9,10.265,10.265,0,0,0,1.457-2.348c.081-.162-.081-.283-.243-.243l-3,1.093c-.04.04-.121.081-.121.121Z" transform="translate(-22.31 -20.402)"/>
  <path id="Path_179" data-name="Path 179" class="cls-2" d="M44.97,15.506a.182.182,0,0,0,.283-.162,10.069,10.069,0,0,0-.567-2.834,10.233,10.233,0,0,0-1.3-2.47.172.172,0,0,0-.283.121L42.5,13.32c0,.081,0,.121.04.162Z" transform="translate(-25.294 -5.951)"/>
</svg>
